<?xml version="1.0" encoding="utf-8"?>
<!-- Generator: Adobe Illustrator 27.4.1, SVG Export Plug-In . SVG Version: 6.00 Build 0)  -->
<svg version="1.1" id="Layer_1" xmlns="http://www.w3.org/2000/svg" xmlns:xlink="http://www.w3.org/1999/xlink" x="0px" y="0px"
	 viewBox="0 0 217.95 79.64" style="enable-background:new 0 0 217.95 79.64;" xml:space="preserve">
<style type="text/css">
	.st0{fill:#010101;}
</style>
<g>
	<path class="st0" d="M10.46,5.55H26.5v5.51h-9.97V21.8h7.83v5.51h-7.83v16.81h-6.06V5.55z"/>
	<path class="st0" d="M29.42,5.55h6.06v33.07h9.97v5.51H29.42V5.55z"/>
	<path class="st0" d="M50.08,42.14c-1.58-1.69-2.37-4.08-2.37-7.16V14.69c0-3.09,0.79-5.47,2.37-7.16c1.58-1.69,3.86-2.53,6.83-2.53
		c2.98,0,5.25,0.85,6.83,2.53c1.58,1.69,2.37,4.08,2.37,7.16v20.28c0,3.09-0.79,5.48-2.37,7.16c-1.58,1.69-3.86,2.54-6.83,2.54
		C53.94,44.67,51.66,43.83,50.08,42.14z M60.06,35.36V14.31c0-2.54-1.05-3.8-3.14-3.8c-2.09,0-3.14,1.27-3.14,3.8v21.05
		c0,2.54,1.05,3.8,3.14,3.8C59.01,39.16,60.06,37.89,60.06,35.36z"/>
	<path class="st0" d="M72.13,42.14c-1.58-1.69-2.37-4.08-2.37-7.16V14.69c0-3.09,0.79-5.47,2.37-7.16c1.58-1.69,3.86-2.53,6.83-2.53
		c2.98,0,5.25,0.85,6.83,2.53c1.58,1.69,2.37,4.08,2.37,7.16v20.28c0,3.09-0.79,5.48-2.37,7.16c-1.58,1.69-3.86,2.54-6.83,2.54
		C75.98,44.67,73.71,43.83,72.13,42.14z M82.1,35.36V14.31c0-2.54-1.05-3.8-3.14-3.8c-2.09,0-3.14,1.27-3.14,3.8v21.05
		c0,2.54,1.05,3.8,3.14,3.8C81.05,39.16,82.1,37.89,82.1,35.36z"/>
	<path class="st0" d="M92.24,5.55h9.26c3.01,0,5.27,0.81,6.78,2.42c1.51,1.62,2.26,3.99,2.26,7.11v19.51c0,3.12-0.75,5.49-2.26,7.11
		c-1.51,1.62-3.77,2.42-6.78,2.42h-9.26V5.55z M101.39,38.61c0.99,0,1.75-0.29,2.29-0.88c0.53-0.59,0.8-1.54,0.8-2.87V14.8
		c0-1.32-0.27-2.28-0.8-2.87c-0.53-0.59-1.29-0.88-2.29-0.88H98.3v27.55H101.39z"/>
	<path class="st0" d="M114.61,5.55h6.06v33.07h9.97v5.51h-16.04V5.55z"/>
	<path class="st0" d="M133.57,5.55h6.06v38.58h-6.06V5.55z"/>
	<path class="st0" d="M146.02,42.17c-1.54-1.67-2.31-4.07-2.31-7.19V14.69c0-3.12,0.77-5.52,2.31-7.19
		c1.54-1.67,3.78-2.51,6.72-2.51c2.94,0,5.18,0.84,6.72,2.51c1.54,1.67,2.31,4.07,2.31,7.19V18h-5.73v-3.69
		c0-2.54-1.05-3.8-3.14-3.8c-2.09,0-3.14,1.27-3.14,3.8v21.11c0,2.5,1.05,3.75,3.14,3.75c2.09,0,3.14-1.25,3.14-3.75v-7.55h-3.03
		v-5.51h8.76v12.62c0,3.12-0.77,5.52-2.31,7.19c-1.54,1.67-3.79,2.51-6.72,2.51C149.81,44.67,147.57,43.84,146.02,42.17z"/>
	<path class="st0" d="M165.7,5.55h6.06v15.71h6.5V5.55h6.06v38.58h-6.06V26.76h-6.5v17.36h-6.06V5.55z"/>
	<path class="st0" d="M193.58,11.06h-6.34V5.55h18.74v5.51h-6.34v33.06h-6.06V11.06z"/>
</g>
<g>
	<path class="st0" d="M23.99,55.56h4.36c1.47,0,2.57,0.39,3.31,1.18c0.73,0.79,1.1,1.95,1.1,3.47v1.86c0,1.52-0.37,2.68-1.1,3.47
		c-0.74,0.79-1.84,1.18-3.31,1.18h-1.4v7.66h-2.96V55.56z M28.35,64.03c0.48,0,0.85-0.13,1.09-0.4c0.24-0.27,0.36-0.73,0.36-1.37
		v-2.23c0-0.65-0.12-1.1-0.36-1.37c-0.24-0.27-0.61-0.4-1.09-0.4h-1.4v5.78H28.35z"/>
	<path class="st0" d="M55.88,55.56h8.06v2.69h-5.11v4.97h4.06v2.69h-4.06v5.78h5.11v2.69h-8.06V55.56z"/>
	<path class="st0" d="M87.14,55.56h4.52c1.47,0,2.57,0.39,3.31,1.18c0.73,0.79,1.1,1.95,1.1,3.47v9.52c0,1.52-0.37,2.68-1.1,3.47
		c-0.74,0.79-1.84,1.18-3.31,1.18h-4.52V55.56z M91.6,71.69c0.48,0,0.86-0.14,1.12-0.43c0.26-0.29,0.39-0.75,0.39-1.4v-9.78
		c0-0.65-0.13-1.11-0.39-1.4c-0.26-0.29-0.63-0.43-1.12-0.43H90.1v13.44H91.6z"/>
	<path class="st0" d="M121.79,55.56h4.01l3.06,18.82h-2.96l-0.54-3.74v0.05h-3.36l-0.54,3.68h-2.74L121.79,55.56z M125.02,68.14
		l-1.32-9.3h-0.05l-1.29,9.3H125.02z"/>
	<path class="st0" d="M151.79,55.56h2.96v16.13h4.87v2.69h-7.82V55.56z"/>
	<path class="st0" d="M183.13,73.42c-0.74-0.82-1.1-1.98-1.1-3.51v-1.08h2.8v1.29c0,1.22,0.51,1.83,1.53,1.83
		c0.5,0,0.88-0.15,1.14-0.44c0.26-0.3,0.39-0.78,0.39-1.44c0-0.79-0.18-1.48-0.54-2.08c-0.36-0.6-1.02-1.32-1.99-2.16
		c-1.22-1.08-2.07-2.05-2.55-2.92c-0.48-0.87-0.73-1.85-0.73-2.94c0-1.49,0.38-2.64,1.13-3.45c0.75-0.82,1.85-1.22,3.28-1.22
		c1.42,0,2.49,0.41,3.21,1.22c0.73,0.82,1.09,1.99,1.09,3.51v0.78H188v-0.97c0-0.65-0.13-1.12-0.38-1.41
		c-0.25-0.3-0.62-0.44-1.1-0.44c-0.99,0-1.48,0.6-1.48,1.8c0,0.68,0.18,1.32,0.55,1.91c0.37,0.59,1.03,1.31,2,2.15
		c1.24,1.08,2.09,2.05,2.55,2.93s0.7,1.91,0.7,3.09c0,1.54-0.38,2.72-1.14,3.55c-0.76,0.82-1.87,1.24-3.32,1.24
		C184.95,74.65,183.87,74.24,183.13,73.42z"/>
</g>
</svg>
