<?xml version="1.0" encoding="utf-8"?>
<!-- Generator: Adobe Illustrator 27.4.1, SVG Export Plug-In . SVG Version: 6.00 Build 0)  -->
<svg version="1.1" id="Layer_1" xmlns="http://www.w3.org/2000/svg" xmlns:xlink="http://www.w3.org/1999/xlink" x="0px" y="0px"
	 viewBox="0 0 80 80" style="enable-background:new 0 0 80 80;" xml:space="preserve">
<style type="text/css">
	.st0{fill:#010101;}
</style>
<path class="st0" d="M77.11,14.13c-1.16-4.85-6.4-10.09-11.24-11.24C57.25,0.96,48.62,0,40,0S22.75,0.96,14.13,2.89
	C9.29,4.04,4.04,9.29,2.89,14.13c-3.85,17.25-3.85,34.49,0,51.74c1.16,4.85,6.4,10.09,11.24,11.24C22.75,79.04,31.38,80,40,80
	c8.62,0,17.25-0.96,25.87-2.89c4.84-1.16,10.09-6.4,11.24-11.24C80.96,48.62,80.96,31.38,77.11,14.13z M74.64,42.06h1.7
	c-0.14,7.64-1.07,15.36-2.77,22.99c-0.84,3.47-5.05,7.68-8.52,8.52c-8.31,1.85-16.74,2.79-25.05,2.79s-16.73-0.94-25.05-2.79
	c-3.47-0.84-7.68-5.05-8.52-8.52C4.73,57.42,3.8,49.7,3.66,42.06H4.6c1.32-0.39,3.83-1.72,5.71-6.2c2.38-5.68,7.68-7.64,11.52-4.25
	c-4.28-0.28-9.09,9.59-1.89,10.45h2.9c1.32-0.39,3.83-1.72,5.71-6.2c2.38-5.68,7.68-7.64,11.52-4.25
	c-4.28-0.28-9.09,9.59-1.89,10.45h2.9c1.32-0.39,3.83-1.72,5.71-6.2c2.38-5.68,7.68-7.64,11.52-4.25
	c-4.28-0.28-9.09,9.59-1.89,10.45h2.9c1.32-0.39,3.83-1.72,5.71-6.2c2.38-5.68,7.68-7.64,11.52-4.25
	C72.25,31.33,67.44,41.2,74.64,42.06z"/>
</svg>
